<svg xmlns="http://www.w3.org/2000/svg" version="1.1" xmlns:xlink="http://www.w3.org/1999/xlink" xmlns:svgjs="http://svgjs.dev/svgjs" width="1000" height="1125" viewBox="0 0 1000 1125"><g transform="matrix(1,0,0,1,1.7053025658242404e-13,0)"><svg viewBox="0 0 320 360" data-background-color="#f9f9f9" preserveAspectRatio="xMidYMid meet" height="1125" width="1000" xmlns="http://www.w3.org/2000/svg" xmlns:xlink="http://www.w3.org/1999/xlink"><g id="tight-bounds" transform="matrix(1,0,0,1,0,0)"><svg viewBox="0 0 320 360" height="360" width="320"><g><svg></svg></g><g><svg viewBox="0 0 320 360" height="360" width="320"><g><path xmlns="http://www.w3.org/2000/svg" d="M20.961 227.22l3.726 4.658-1.863-6.056c-0.466-2.795-3.726 0.466-1.863 1.398M25.153 224.425c1.397 2.329 2.795 4.658 2.795 6.987 0 3.261 2.795 4.658 5.123 5.589-3.261-3.726-5.124-13.974-7.918-12.576M204.017 26.929c7.918 0 15.371-0.932 23.756 0.931 20.495 5.124 37.729 15.371 49.374 29.811l32.606 52.169c1.397 13.042 4.192 27.482 3.726 43.319 3.261 0 2.795-4.658 6.521-5.59-3.726 9.316-5.59 20.961-6.521 34.469-2.329-7.453 0-18.632 0.466-24.687-3.261 5.124-5.124 1.397-5.124-0.932 0.466-3.726-1.397-3.261-2.795-4.658-5.124-4.658-8.384-9.782-12.11-17.7 2.329-6.055 2.795-14.905-4.658-19.563-2.329-1.397-5.124-3.726-6.521-7.453-1.863-5.124-5.124-11.179-4.193-19.097 0.466-2.329-6.987 5.124-11.179 1.863-18.166-12.576-36.332-27.016-58.224-39.127-11.645 0-20.029-4.192-24.221-9.316-3.726-4.658-0.932-10.713 4.658-11.179 3.261 0 6.987-0.932 9.782 0.932 0.466-1.863 2.329-4.192 4.657-4.192M157.904 16.215l0.932 0.466c4.658 0.932 6.987 7.453 12.11 5.124 0 3.261 0.466 6.521-0.466 8.85-1.397 3.726-5.59 3.726-8.85 3.726-31.208-1.863-49.374 11.179-68.471 22.358-5.124 3.261-10.713 5.59-14.906 9.782-20.029 18.632-41.921 35.866-47.045 70.335l-4.192 38.195c-0.466 4.192-5.124 8.384-4.192 13.508l3.26 22.824c-3.261-3.261-5.124 0.932-4.192 2.795 0.466 1.397 2.329 6.055 5.124 1.863 3.726 6.987 7.453 20.495 12.576 26.55 15.837 18.632 36.332 35.4 53.101 52.169 4.192-0.932 7.453-0.932 8.384-3.727 1.397 2.795-1.397 5.59-3.726 6.056 7.453 4.658 15.837 8.85 27.016 9.781 14.44 0.932 27.948 3.261 40.524 6.522 6.521-1.863 13.042-2.795 20.029-3.261 2.329 0 3.726-3.726 6.521-4.658l0.466-4.658c2.795 4.192 2.329-1.397 0.466-4.192 3.261 2.795 4.192 5.124 5.589 6.987 0-1.397 3.726-6.521 3.727-0.466l0.931-6.055c1.397-0.932 1.863 5.124 3.261 0.931 1.397-4.192 4.192-0.932 6.987-2.329-0.932 1.863-0.466 5.59 2.794 3.261l3.727-3.261c2.329 5.59 6.055 3.261 7.918 2.329 20.495-13.042 40.99-28.413 60.553-43.784l-0.466 6.055 2.329-7.453c2.329 2.329 4.192 0.466 5.124-0.931 2.795-4.658 6.521-9.316 12.577-13.508-7.453 20.029-16.303 35.866-27.482 48.908l-4.658 5.59c0 3.261-0.932 7.453-4.658 7.918-1.863 0.466-5.59-0.932-8.384 1.863-1.397 1.863 3.261 5.59-0.466 2.795-3.261-2.329-6.521 0-10.248 0.932-2.795 0.932 1.863 3.726 2.795 5.589 0.932 1.863 1.863 3.726 1.398 6.056l-5.124-5.59c-6.055 3.261-9.782 9.316-14.906 13.974-2.329 1.863-1.397 5.124-1.397 7.918-3.261 0-6.987-0.932-8.85 0.932-1.397 1.863-0.932 4.658-0.932 7.453-4.658-0.466-5.124-7.453-9.315-6.056-4.192 0.932-8.85 1.397-12.577 3.727 2.795 5.59-4.658 2.329-3.726 3.26-6.987-4.192-13.042-7.453-20.495-4.658-15.837-5.124-35.4-2.795-49.84-0.931 0-2.329 0.466-4.658-0.466-5.124-0.932 2.329-3.726 1.397-3.26 1.397-8.85-6.055-17.7-9.782-27.016-14.905-8.384 0.932-16.303-3.261-18.632-5.59-6.521-6.055-13.974-2.795-20.029-4.192-13.042-3.261-17.7-16.769-19.098-26.084-0.932-4.658-4.658-6.521-6.055-6.056-6.055-19.563-15.371-37.263-22.824-55.429-1.863-4.658-1.397-9.316-1.397-14.44 2.329 0.932 4.658 0.466 4.192-2.794-2.329-15.371-7.918-27.016-13.974-38.195 3.261-15.837 3.726-34.469 11.179-48.443 6.521-12.576 18.632-19.098 27.016-29.811 2.795-3.726 2.795-8.85 5.59-12.11 9.316-9.316 18.632-19.098 28.879-27.482 4.658-3.726 10.247 0 17.234-1.397 2.329-8.384 11.645-15.837 20.495-13.508 3.726 0.932 11.179-8.85 13.508-9.782 3.726-1.397 1.863 3.726 1.863 6.987 8.85-6.987 20.961-10.713 32.14-14.906" fill="#030303" fill-rule="nonzero" stroke="none" stroke-width="1" stroke-linecap="butt" stroke-linejoin="miter" stroke-miterlimit="10" stroke-dasharray="" stroke-dashoffset="0" font-family="none" font-weight="none" font-size="none" text-anchor="none" style="mix-blend-mode: normal" data-fill-palette-color="tertiary"></path></g><g transform="matrix(1,0,0,1,64,160.29050279329607)"><svg viewBox="0 0 192 39.41899441340783" height="39.41899441340783" width="192"><g><svg viewBox="0 0 192 39.41899441340783" height="39.41899441340783" width="192"><g><svg viewBox="0 0 192 39.41899441340783" height="39.41899441340783" width="192"><g><svg viewBox="0 0 192 39.41899441340783" height="39.41899441340783" width="192"><g id="textblocktransform"><svg viewBox="0 0 192 39.41899441340783" height="39.41899441340783" width="192" id="textblock"><g><svg viewBox="0 0 192 39.41899441340783" height="39.41899441340783" width="192"><g transform="matrix(1,0,0,1,0,0)"><svg width="192" viewBox="2.4800000190734863 -32.43000030517578 161.0800018310547 33.08000183105469" height="39.41899441340783" data-palette-color="#030303"><path d="M16.28 0.65L16.28 0.65Q12.43 0.65 9.3-1.36 6.18-3.38 4.33-7.04 2.48-10.7 2.48-15.65L2.48-15.65Q2.48-19.68 3.64-22.8 4.8-25.93 6.86-28.08 8.93-30.23 11.65-31.33 14.38-32.43 17.48-32.43L17.48-32.43Q21.53-32.43 24.43-30.73 27.33-29.03 29.2-25.33L29.2-25.33 24.5-23.98Q23-26.05 21.2-27.09 19.4-28.13 17.25-28.13L17.25-28.13Q14.63-28.13 12.41-26.61 10.2-25.1 8.88-22.31 7.55-19.53 7.55-15.65L7.55-15.65Q7.55-12.13 8.66-9.44 9.78-6.75 11.81-5.24 13.85-3.73 16.63-3.73L16.63-3.73Q18.82-3.73 20.58-4.73 22.33-5.73 23.34-7.69 24.35-9.65 24.35-12.55L24.35-12.55 25.6-12.55Q25.6-8.53 24.64-5.56 23.68-2.6 21.63-0.98 19.58 0.65 16.28 0.65ZM28.95 0L25.1 0 24.35-7.3 24.35-12.7 16.7-12.9 16.7-16.03 28.95-16.03 28.95 0ZM57 0L52.85 0 52.25-5.53 52.25-15.55Q52.25-18.5 51.02-19.84 49.8-21.18 47.15-21.18L47.15-21.18Q45.65-21.18 44.48-20.74 43.32-20.3 42.66-19.43 42-18.55 42-17.23L42-17.23 36.75-17.23Q36.75-19.88 38.05-21.53 39.35-23.18 41.69-23.94 44.02-24.7 47.15-24.7L47.15-24.7Q50.07-24.7 52.3-23.74 54.52-22.78 55.76-20.73 57-18.68 57-15.43L57-15.43 57 0ZM44.8 0.65L44.8 0.65Q41.77 0.65 39.77-0.41 37.77-1.48 36.79-3.2 35.8-4.93 35.8-6.88L35.8-6.88Q35.8-9.25 37.01-10.79 38.22-12.33 40.37-13.08 42.52-13.83 45.32-13.83L45.32-13.83Q47.25-13.83 49.07-13.48 50.9-13.13 52.67-12.55L52.67-12.55 52.67-9.68Q51.22-10.2 49.46-10.51 47.7-10.83 46.17-10.83L46.17-10.83Q43.9-10.83 42.37-9.93 40.85-9.03 40.85-6.88L40.85-6.88Q40.85-5.3 42.05-4.16 43.25-3.03 45.85-3.03L45.85-3.03Q47.75-3.03 49.2-3.89 50.65-4.75 51.45-6.05 52.25-7.35 52.25-8.65L52.25-8.65 53.4-8.65Q53.4-6.15 52.39-4.04 51.37-1.93 49.45-0.64 47.52 0.65 44.8 0.65ZM82.22 0L82.22-24.13 87-24.13 87 0 82.22 0ZM65.42-8.8L65.42-24.13 70.17-24.13 70.17-9.22Q70.17-6.5 71.51-5.1 72.84-3.7 75.27-3.7L75.27-3.7Q77.32-3.7 78.88-4.78 80.45-5.85 81.33-7.83 82.22-9.8 82.22-12.5L82.22-12.5 83.75-12.5Q83.75-8.28 82.59-5.4 81.45-2.53 79.37-1.04 77.3 0.45 74.52 0.45L74.52 0.45Q71.87 0.45 69.81-0.53 67.75-1.5 66.58-3.54 65.42-5.58 65.42-8.8L65.42-8.8ZM101.49 0L96.74 0 96.74-24.13 101.49-24.13 101.49 0ZM101.49-10.75L100.19-10.75Q100.19-15.38 101.16-18.44 102.12-21.5 103.86-23 105.59-24.5 107.94-24.5L107.94-24.5Q108.64-24.5 109.26-24.4 109.87-24.3 110.47-24.13L110.47-24.13 110.29-19.4Q109.62-19.58 108.83-19.71 108.04-19.85 107.39-19.85L107.39-19.85Q105.34-19.85 104.04-18.76 102.74-17.68 102.12-15.64 101.49-13.6 101.49-10.75L101.49-10.75ZM134.69 0L130.54 0 129.94-5.53 129.94-15.55Q129.94-18.5 128.72-19.84 127.49-21.18 124.84-21.18L124.84-21.18Q123.34-21.18 122.18-20.74 121.02-20.3 120.35-19.43 119.69-18.55 119.69-17.23L119.69-17.23 114.44-17.23Q114.44-19.88 115.74-21.53 117.04-23.18 119.38-23.94 121.72-24.7 124.84-24.7L124.84-24.7Q127.77-24.7 129.99-23.74 132.22-22.78 133.45-20.73 134.69-18.68 134.69-15.43L134.69-15.43 134.69 0ZM122.49 0.65L122.49 0.65Q119.47 0.65 117.47-0.41 115.47-1.48 114.48-3.2 113.49-4.93 113.49-6.88L113.49-6.88Q113.49-9.25 114.7-10.79 115.92-12.33 118.06-13.08 120.22-13.83 123.02-13.83L123.02-13.83Q124.94-13.83 126.77-13.48 128.59-13.13 130.37-12.55L130.37-12.55 130.37-9.68Q128.91-10.2 127.15-10.51 125.39-10.83 123.87-10.83L123.87-10.83Q121.59-10.83 120.06-9.93 118.54-9.03 118.54-6.88L118.54-6.88Q118.54-5.3 119.74-4.16 120.94-3.03 123.54-3.03L123.54-3.03Q125.44-3.03 126.89-3.89 128.34-4.75 129.14-6.05 129.94-7.35 129.94-8.65L129.94-8.65 131.09-8.65Q131.09-6.15 130.08-4.04 129.06-1.93 127.14-0.64 125.22 0.65 122.49 0.65ZM148.94 0L139.61-24.05 145.06-24.05 151.84-4.08 151.34-4.08 158.11-24.05 163.56-24.05 154.21 0 148.94 0Z" opacity="1" transform="matrix(1,0,0,1,0,0)" fill="#030303" class="wordmark-text-0" data-fill-palette-color="primary" id="text-0"></path></svg></g></svg></g></svg></g></svg></g><g></g></svg></g></svg></g></svg></g></svg></g><defs></defs></svg><rect width="320" height="360" fill="none" stroke="none" visibility="hidden"></rect></g></svg></g></svg>