<svg xmlns="http://www.w3.org/2000/svg" version="1.1" xmlns:xlink="http://www.w3.org/1999/xlink" xmlns:svgjs="http://svgjs.dev/svgjs" width="1000" height="1000" viewBox="0 0 1000 1000"><rect width="1000" height="1000" fill="#ffffff"></rect><g transform="matrix(0.7,0,0,0.7,150.0000000000001,106.25)"><svg viewBox="0 0 320 360" data-background-color="#f9f9f9" preserveAspectRatio="xMidYMid meet" height="1125" width="1000" xmlns="http://www.w3.org/2000/svg" xmlns:xlink="http://www.w3.org/1999/xlink"><g id="tight-bounds" transform="matrix(1,0,0,1,0,0)"><svg viewBox="0 0 320 360" height="360" width="320"><g><svg></svg></g><g><svg viewBox="0 0 320 360" height="360" width="320"><g><path d="M20.961 227.22l3.726 4.658-1.863-6.056c-0.466-2.795-3.726 0.466-1.863 1.398M25.153 224.425c1.397 2.329 2.795 4.658 2.795 6.987 0 3.261 2.795 4.658 5.123 5.589-3.261-3.726-5.124-13.974-7.918-12.576M204.017 26.929c7.918 0 15.371-0.932 23.756 0.931 20.495 5.124 37.729 15.371 49.374 29.811l32.606 52.169c1.397 13.042 4.192 27.482 3.726 43.319 3.261 0 2.795-4.658 6.521-5.59-3.726 9.316-5.59 20.961-6.521 34.469-2.329-7.453 0-18.632 0.466-24.687-3.261 5.124-5.124 1.397-5.124-0.932 0.466-3.726-1.397-3.261-2.795-4.658-5.124-4.658-8.384-9.782-12.11-17.7 2.329-6.055 2.795-14.905-4.658-19.563-2.329-1.397-5.124-3.726-6.521-7.453-1.863-5.124-5.124-11.179-4.193-19.097 0.466-2.329-6.987 5.124-11.179 1.863-18.166-12.576-36.332-27.016-58.224-39.127-11.645 0-20.029-4.192-24.221-9.316-3.726-4.658-0.932-10.713 4.658-11.179 3.261 0 6.987-0.932 9.782 0.932 0.466-1.863 2.329-4.192 4.657-4.192M157.904 16.215l0.932 0.466c4.658 0.932 6.987 7.453 12.11 5.124 0 3.261 0.466 6.521-0.466 8.85-1.397 3.726-5.59 3.726-8.85 3.726-31.208-1.863-49.374 11.179-68.471 22.358-5.124 3.261-10.713 5.59-14.906 9.782-20.029 18.632-41.921 35.866-47.045 70.335l-4.192 38.195c-0.466 4.192-5.124 8.384-4.192 13.508l3.26 22.824c-3.261-3.261-5.124 0.932-4.192 2.795 0.466 1.397 2.329 6.055 5.124 1.863 3.726 6.987 7.453 20.495 12.576 26.55 15.837 18.632 36.332 35.4 53.101 52.169 4.192-0.932 7.453-0.932 8.384-3.727 1.397 2.795-1.397 5.59-3.726 6.056 7.453 4.658 15.837 8.85 27.016 9.781 14.44 0.932 27.948 3.261 40.524 6.522 6.521-1.863 13.042-2.795 20.029-3.261 2.329 0 3.726-3.726 6.521-4.658l0.466-4.658c2.795 4.192 2.329-1.397 0.466-4.192 3.261 2.795 4.192 5.124 5.589 6.987 0-1.397 3.726-6.521 3.727-0.466l0.931-6.055c1.397-0.932 1.863 5.124 3.261 0.931 1.397-4.192 4.192-0.932 6.987-2.329-0.932 1.863-0.466 5.59 2.794 3.261l3.727-3.261c2.329 5.59 6.055 3.261 7.918 2.329 20.495-13.042 40.99-28.413 60.553-43.784l-0.466 6.055 2.329-7.453c2.329 2.329 4.192 0.466 5.124-0.931 2.795-4.658 6.521-9.316 12.577-13.508-7.453 20.029-16.303 35.866-27.482 48.908l-4.658 5.59c0 3.261-0.932 7.453-4.658 7.918-1.863 0.466-5.59-0.932-8.384 1.863-1.397 1.863 3.261 5.59-0.466 2.795-3.261-2.329-6.521 0-10.248 0.932-2.795 0.932 1.863 3.726 2.795 5.589 0.932 1.863 1.863 3.726 1.398 6.056l-5.124-5.59c-6.055 3.261-9.782 9.316-14.906 13.974-2.329 1.863-1.397 5.124-1.397 7.918-3.261 0-6.987-0.932-8.85 0.932-1.397 1.863-0.932 4.658-0.932 7.453-4.658-0.466-5.124-7.453-9.315-6.056-4.192 0.932-8.85 1.397-12.577 3.727 2.795 5.59-4.658 2.329-3.726 3.26-6.987-4.192-13.042-7.453-20.495-4.658-15.837-5.124-35.4-2.795-49.84-0.931 0-2.329 0.466-4.658-0.466-5.124-0.932 2.329-3.726 1.397-3.26 1.397-8.85-6.055-17.7-9.782-27.016-14.905-8.384 0.932-16.303-3.261-18.632-5.59-6.521-6.055-13.974-2.795-20.029-4.192-13.042-3.261-17.7-16.769-19.098-26.084-0.932-4.658-4.658-6.521-6.055-6.056-6.055-19.563-15.371-37.263-22.824-55.429-1.863-4.658-1.397-9.316-1.397-14.44 2.329 0.932 4.658 0.466 4.192-2.794-2.329-15.371-7.918-27.016-13.974-38.195 3.261-15.837 3.726-34.469 11.179-48.443 6.521-12.576 18.632-19.098 27.016-29.811 2.795-3.726 2.795-8.85 5.59-12.11 9.316-9.316 18.632-19.098 28.879-27.482 4.658-3.726 10.247 0 17.234-1.397 2.329-8.384 11.645-15.837 20.495-13.508 3.726 0.932 11.179-8.85 13.508-9.782 3.726-1.397 1.863 3.726 1.863 6.987 8.85-6.987 20.961-10.713 32.14-14.906" fill="#000000" fill-rule="nonzero" stroke="none" stroke-width="1" stroke-linecap="butt" stroke-linejoin="miter" stroke-miterlimit="10" stroke-dasharray="" stroke-dashoffset="0" font-family="none" font-weight="none" font-size="none" text-anchor="none" style="mix-blend-mode: normal" data-fill-palette-color="tertiary"></path></g><g transform="matrix(1,0,0,1,64,160.4912069742973)"><svg viewBox="0 0 192 39.01758605140538" height="39.01758605140538" width="192"><g><svg viewBox="0 0 192 39.01758605140538" height="39.01758605140538" width="192"><g><svg viewBox="0 0 192 39.01758605140538" height="39.01758605140538" width="192"><g><svg viewBox="0 0 192 39.01758605140538" height="39.01758605140538" width="192"><g id="textblocktransform"><svg viewBox="0 0 192 39.01758605140538" height="39.01758605140538" width="192" id="textblock"><g><svg viewBox="0 0 192 39.01758605140538" height="39.01758605140538" width="192"><g transform="matrix(1,0,0,1,0,0)"><svg width="192" viewBox="2.35 -33.1 166.31 33.800000000000004" height="39.01758605140538" data-palette-color="#030303"><path d="M16.5 0.7L16.5 0.7Q12.53 0.7 9.33-1.4 6.13-3.5 4.24-7.26 2.35-11.03 2.35-16.05L2.35-16.05Q2.35-20.03 3.51-23.18 4.67-26.33 6.75-28.55 8.83-30.78 11.63-31.94 14.43-33.1 17.7-33.1L17.7-33.1Q22.25-33.1 25.34-31.13 28.43-29.15 30.15-24.9L30.15-24.9 24.1-23.5Q22.83-25.58 21.16-26.66 19.5-27.75 17.4-27.75L17.4-27.75Q15-27.75 13.03-26.34 11.05-24.93 9.88-22.3 8.7-19.68 8.7-16.05L8.7-16.05Q8.7-12.65 9.74-10.1 10.78-7.55 12.65-6.13 14.53-4.7 17-4.7L17-4.7Q19.1-4.7 20.76-5.64 22.43-6.58 23.39-8.33 24.35-10.08 24.35-12.55L24.35-12.55 25.65-12.55Q25.65-8.5 24.69-5.53 23.73-2.55 21.7-0.93 19.68 0.7 16.5 0.7ZM30 0L25.2 0 24.35-7.15 24.35-12.75 17.05-12.9 17.05-16.65 30-16.65 30 0ZM59.1 0L53.95 0 53.2-5.9 53.2-15.65Q53.2-18.2 52.16-19.43 51.12-20.65 48.65-20.65L48.65-20.65Q47.22-20.65 46.17-20.23 45.12-19.8 44.56-19.01 44-18.23 44-17.1L44-17.1 37.55-17.1Q37.55-19.85 38.87-21.59 40.2-23.33 42.69-24.14 45.17-24.95 48.65-24.95L48.65-24.95Q51.8-24.95 54.15-23.94 56.5-22.93 57.8-20.83 59.1-18.73 59.1-15.45L59.1-15.45 59.1 0ZM46 0.7L46 0.7Q42.87 0.7 40.79-0.39 38.7-1.48 37.65-3.25 36.6-5.03 36.6-7.1L36.6-7.1Q36.6-9.4 37.81-10.96 39.02-12.53 41.25-13.31 43.47-14.1 46.5-14.1L46.5-14.1Q48.47-14.1 50.23-13.8 52-13.5 53.75-13L53.75-13 53.75-9.55Q52.37-10 50.75-10.25 49.12-10.5 47.7-10.5L47.7-10.5Q45.6-10.5 44.25-9.73 42.9-8.95 42.9-7.1L42.9-7.1Q42.9-5.75 44-4.78 45.1-3.8 47.5-3.8L47.5-3.8Q49.32-3.8 50.6-4.6 51.87-5.4 52.54-6.6 53.2-7.8 53.2-9L53.2-9 54.6-9Q54.6-6.38 53.62-4.16 52.65-1.95 50.73-0.63 48.82 0.7 46 0.7ZM83.9 0L83.9-24.35 89.8-24.35 89.8 0 83.9 0ZM67.25-8.85L67.25-24.35 73.15-24.35 73.15-9.45Q73.15-7.08 74.32-5.89 75.5-4.7 77.55-4.7L77.55-4.7Q79.3-4.7 80.73-5.61 82.17-6.53 83.03-8.31 83.9-10.1 83.9-12.75L83.9-12.75 85.5-12.75Q85.5-8.3 84.34-5.38 83.2-2.45 81.17-1 79.15 0.45 76.5 0.45L76.5 0.45Q73.9 0.45 71.8-0.48 69.7-1.4 68.47-3.45 67.25-5.5 67.25-8.85L67.25-8.85ZM104.99 0L99.09 0 99.09-24.35 104.99-24.35 104.99 0ZM104.99-10.65L103.54-10.65Q103.54-15.43 104.62-18.55 105.69-21.68 107.51-23.19 109.32-24.7 111.54-24.7L111.54-24.7Q112.14-24.7 112.68-24.63 113.22-24.55 113.74-24.4L113.74-24.4 113.64-18.5Q112.99-18.65 112.24-18.75 111.49-18.85 110.89-18.85L110.89-18.85Q108.94-18.85 107.63-17.91 106.32-16.98 105.66-15.15 104.99-13.33 104.99-10.65L104.99-10.65ZM139.31 0L134.17 0 133.42-5.9 133.42-15.65Q133.42-18.2 132.38-19.43 131.34-20.65 128.87-20.65L128.87-20.65Q127.44-20.65 126.39-20.23 125.34-19.8 124.78-19.01 124.22-18.23 124.22-17.1L124.22-17.1 117.77-17.1Q117.77-19.85 119.09-21.59 120.42-23.33 122.9-24.14 125.39-24.95 128.87-24.95L128.87-24.95Q132.02-24.95 134.37-23.94 136.72-22.93 138.02-20.83 139.31-18.73 139.31-15.45L139.31-15.45 139.31 0ZM126.22 0.7L126.22 0.7Q123.09 0.7 121-0.39 118.92-1.48 117.87-3.25 116.82-5.03 116.82-7.1L116.82-7.1Q116.82-9.4 118.03-10.96 119.24-12.53 121.47-13.31 123.69-14.1 126.72-14.1L126.72-14.1Q128.69-14.1 130.45-13.8 132.22-13.5 133.97-13L133.97-13 133.97-9.55Q132.59-10 130.97-10.25 129.34-10.5 127.92-10.5L127.92-10.5Q125.82-10.5 124.47-9.73 123.12-8.95 123.12-7.1L123.12-7.1Q123.12-5.75 124.22-4.78 125.32-3.8 127.72-3.8L127.72-3.8Q129.54-3.8 130.81-4.6 132.09-5.4 132.75-6.6 133.42-7.8 133.42-9L133.42-9 134.81-9Q134.81-6.38 133.84-4.16 132.87-1.95 130.95-0.63 129.04 0.7 126.22 0.7ZM152.96 0L143.91-24.25 150.71-24.25 156.51-5.05 156.06-5.05 161.86-24.25 168.66-24.25 159.61 0 152.96 0Z" opacity="1" transform="matrix(1,0,0,1,0,0)" fill="#000000" class="wordmark-text-0" data-fill-palette-color="primary" id="text-0"></path></svg></g></svg></g></svg></g></svg></g><g></g></svg></g></svg></g></svg></g></svg></g><defs></defs></svg><rect width="320" height="360" fill="none" stroke="none" visibility="hidden"></rect></g></svg></g></svg>